<mxfile host="app.diagrams.net" modified="2023-05-24T12:58:22.194Z" agent="Mozilla/5.0 (Windows NT 10.0; Win64; x64) AppleWebKit/537.36 (KHTML, like Gecko) Chrome/113.0.0.0 Safari/537.36 Edg/113.0.1774.50" etag="oHNfbdE87DpJFm89O7Cu" version="21.3.3" type="github">
  <diagram id="C5RBs43oDa-KdzZeNtuy" name="Page-1">
    <mxGraphModel dx="1117" dy="790" grid="1" gridSize="10" guides="1" tooltips="1" connect="1" arrows="1" fold="1" page="1" pageScale="1" pageWidth="827" pageHeight="1169" math="0" shadow="0">
      <root>
        <mxCell id="WIyWlLk6GJQsqaUBKTNV-0" />
        <mxCell id="WIyWlLk6GJQsqaUBKTNV-1" parent="WIyWlLk6GJQsqaUBKTNV-0" />
        <mxCell id="yrKkiivH3VAKtjY5emBy-18" style="edgeStyle=orthogonalEdgeStyle;rounded=0;orthogonalLoop=1;jettySize=auto;html=1;exitX=1;exitY=0.5;exitDx=0;exitDy=0;entryX=0;entryY=0.5;entryDx=0;entryDy=0;" edge="1" parent="WIyWlLk6GJQsqaUBKTNV-1" source="yrKkiivH3VAKtjY5emBy-0" target="yrKkiivH3VAKtjY5emBy-11">
          <mxGeometry relative="1" as="geometry" />
        </mxCell>
        <mxCell id="yrKkiivH3VAKtjY5emBy-19" style="edgeStyle=orthogonalEdgeStyle;rounded=0;orthogonalLoop=1;jettySize=auto;html=1;exitX=1;exitY=0.5;exitDx=0;exitDy=0;" edge="1" parent="WIyWlLk6GJQsqaUBKTNV-1" source="yrKkiivH3VAKtjY5emBy-0" target="yrKkiivH3VAKtjY5emBy-12">
          <mxGeometry relative="1" as="geometry" />
        </mxCell>
        <mxCell id="yrKkiivH3VAKtjY5emBy-0" value="善意（交流）" style="rounded=1;whiteSpace=wrap;html=1;" vertex="1" parent="WIyWlLk6GJQsqaUBKTNV-1">
          <mxGeometry x="140" y="230" width="70" height="40" as="geometry" />
        </mxCell>
        <mxCell id="yrKkiivH3VAKtjY5emBy-6" value="" style="edgeStyle=orthogonalEdgeStyle;rounded=0;orthogonalLoop=1;jettySize=auto;html=1;" edge="1" parent="WIyWlLk6GJQsqaUBKTNV-1" source="yrKkiivH3VAKtjY5emBy-1" target="yrKkiivH3VAKtjY5emBy-2">
          <mxGeometry relative="1" as="geometry" />
        </mxCell>
        <mxCell id="yrKkiivH3VAKtjY5emBy-7" style="edgeStyle=orthogonalEdgeStyle;rounded=0;orthogonalLoop=1;jettySize=auto;html=1;exitX=1;exitY=0.5;exitDx=0;exitDy=0;entryX=0;entryY=0.5;entryDx=0;entryDy=0;" edge="1" parent="WIyWlLk6GJQsqaUBKTNV-1" source="yrKkiivH3VAKtjY5emBy-1" target="yrKkiivH3VAKtjY5emBy-3">
          <mxGeometry relative="1" as="geometry" />
        </mxCell>
        <mxCell id="yrKkiivH3VAKtjY5emBy-8" style="edgeStyle=orthogonalEdgeStyle;rounded=0;orthogonalLoop=1;jettySize=auto;html=1;exitX=1;exitY=0.5;exitDx=0;exitDy=0;entryX=0;entryY=0.5;entryDx=0;entryDy=0;" edge="1" parent="WIyWlLk6GJQsqaUBKTNV-1" source="yrKkiivH3VAKtjY5emBy-1" target="yrKkiivH3VAKtjY5emBy-0">
          <mxGeometry relative="1" as="geometry" />
        </mxCell>
        <mxCell id="yrKkiivH3VAKtjY5emBy-1" value="A" style="ellipse;whiteSpace=wrap;html=1;" vertex="1" parent="WIyWlLk6GJQsqaUBKTNV-1">
          <mxGeometry x="10" y="310" width="60" height="40" as="geometry" />
        </mxCell>
        <mxCell id="yrKkiivH3VAKtjY5emBy-20" style="edgeStyle=orthogonalEdgeStyle;rounded=0;orthogonalLoop=1;jettySize=auto;html=1;exitX=1;exitY=0.5;exitDx=0;exitDy=0;entryX=0;entryY=0.5;entryDx=0;entryDy=0;" edge="1" parent="WIyWlLk6GJQsqaUBKTNV-1" source="yrKkiivH3VAKtjY5emBy-2" target="yrKkiivH3VAKtjY5emBy-13">
          <mxGeometry relative="1" as="geometry" />
        </mxCell>
        <mxCell id="yrKkiivH3VAKtjY5emBy-21" style="edgeStyle=orthogonalEdgeStyle;rounded=0;orthogonalLoop=1;jettySize=auto;html=1;exitX=1;exitY=0.5;exitDx=0;exitDy=0;entryX=0;entryY=0.5;entryDx=0;entryDy=0;" edge="1" parent="WIyWlLk6GJQsqaUBKTNV-1" source="yrKkiivH3VAKtjY5emBy-2" target="yrKkiivH3VAKtjY5emBy-14">
          <mxGeometry relative="1" as="geometry" />
        </mxCell>
        <mxCell id="yrKkiivH3VAKtjY5emBy-2" value="不管" style="rounded=1;whiteSpace=wrap;html=1;" vertex="1" parent="WIyWlLk6GJQsqaUBKTNV-1">
          <mxGeometry x="140" y="310" width="70" height="40" as="geometry" />
        </mxCell>
        <mxCell id="yrKkiivH3VAKtjY5emBy-22" style="edgeStyle=orthogonalEdgeStyle;rounded=0;orthogonalLoop=1;jettySize=auto;html=1;exitX=1;exitY=0.5;exitDx=0;exitDy=0;entryX=0;entryY=0.5;entryDx=0;entryDy=0;" edge="1" parent="WIyWlLk6GJQsqaUBKTNV-1" source="yrKkiivH3VAKtjY5emBy-3" target="yrKkiivH3VAKtjY5emBy-16">
          <mxGeometry relative="1" as="geometry" />
        </mxCell>
        <mxCell id="yrKkiivH3VAKtjY5emBy-23" style="edgeStyle=orthogonalEdgeStyle;rounded=0;orthogonalLoop=1;jettySize=auto;html=1;exitX=1;exitY=0.5;exitDx=0;exitDy=0;entryX=0;entryY=0.5;entryDx=0;entryDy=0;" edge="1" parent="WIyWlLk6GJQsqaUBKTNV-1" source="yrKkiivH3VAKtjY5emBy-3" target="yrKkiivH3VAKtjY5emBy-17">
          <mxGeometry relative="1" as="geometry" />
        </mxCell>
        <mxCell id="yrKkiivH3VAKtjY5emBy-3" value="恶意（攻击）" style="rounded=1;whiteSpace=wrap;html=1;" vertex="1" parent="WIyWlLk6GJQsqaUBKTNV-1">
          <mxGeometry x="140" y="400" width="70" height="40" as="geometry" />
        </mxCell>
        <mxCell id="yrKkiivH3VAKtjY5emBy-10" value="B" style="ellipse;whiteSpace=wrap;html=1;" vertex="1" parent="WIyWlLk6GJQsqaUBKTNV-1">
          <mxGeometry x="330" y="80" width="70" height="40" as="geometry" />
        </mxCell>
        <mxCell id="yrKkiivH3VAKtjY5emBy-11" value="善意" style="rounded=1;whiteSpace=wrap;html=1;" vertex="1" parent="WIyWlLk6GJQsqaUBKTNV-1">
          <mxGeometry x="330" y="180" width="60" height="40" as="geometry" />
        </mxCell>
        <mxCell id="yrKkiivH3VAKtjY5emBy-12" value="恶意" style="rounded=1;whiteSpace=wrap;html=1;" vertex="1" parent="WIyWlLk6GJQsqaUBKTNV-1">
          <mxGeometry x="330" y="230" width="60" height="40" as="geometry" />
        </mxCell>
        <mxCell id="yrKkiivH3VAKtjY5emBy-13" value="善意" style="rounded=1;whiteSpace=wrap;html=1;" vertex="1" parent="WIyWlLk6GJQsqaUBKTNV-1">
          <mxGeometry x="330" y="290" width="60" height="40" as="geometry" />
        </mxCell>
        <mxCell id="yrKkiivH3VAKtjY5emBy-14" value="恶意" style="rounded=1;whiteSpace=wrap;html=1;" vertex="1" parent="WIyWlLk6GJQsqaUBKTNV-1">
          <mxGeometry x="330" y="340" width="60" height="40" as="geometry" />
        </mxCell>
        <mxCell id="yrKkiivH3VAKtjY5emBy-16" value="善意" style="rounded=1;whiteSpace=wrap;html=1;" vertex="1" parent="WIyWlLk6GJQsqaUBKTNV-1">
          <mxGeometry x="330" y="400" width="60" height="40" as="geometry" />
        </mxCell>
        <mxCell id="yrKkiivH3VAKtjY5emBy-17" value="恶意" style="rounded=1;whiteSpace=wrap;html=1;" vertex="1" parent="WIyWlLk6GJQsqaUBKTNV-1">
          <mxGeometry x="330" y="450" width="60" height="40" as="geometry" />
        </mxCell>
        <mxCell id="yrKkiivH3VAKtjY5emBy-24" value="(5,5)" style="rounded=0;whiteSpace=wrap;html=1;" vertex="1" parent="WIyWlLk6GJQsqaUBKTNV-1">
          <mxGeometry x="470" y="180" width="60" height="40" as="geometry" />
        </mxCell>
        <mxCell id="yrKkiivH3VAKtjY5emBy-25" value="(-infty,-20)" style="rounded=0;whiteSpace=wrap;html=1;" vertex="1" parent="WIyWlLk6GJQsqaUBKTNV-1">
          <mxGeometry x="470" y="230" width="60" height="40" as="geometry" />
        </mxCell>
        <mxCell id="yrKkiivH3VAKtjY5emBy-26" value="(0,0)" style="rounded=0;whiteSpace=wrap;html=1;" vertex="1" parent="WIyWlLk6GJQsqaUBKTNV-1">
          <mxGeometry x="470" y="290" width="60" height="40" as="geometry" />
        </mxCell>
        <mxCell id="yrKkiivH3VAKtjY5emBy-27" value="(0,0)" style="rounded=0;whiteSpace=wrap;html=1;" vertex="1" parent="WIyWlLk6GJQsqaUBKTNV-1">
          <mxGeometry x="470" y="340" width="60" height="40" as="geometry" />
        </mxCell>
        <mxCell id="yrKkiivH3VAKtjY5emBy-28" value="(-20,-infty)" style="rounded=0;whiteSpace=wrap;html=1;" vertex="1" parent="WIyWlLk6GJQsqaUBKTNV-1">
          <mxGeometry x="470" y="400" width="60" height="40" as="geometry" />
        </mxCell>
        <mxCell id="yrKkiivH3VAKtjY5emBy-29" value="(-100,-100)" style="rounded=0;whiteSpace=wrap;html=1;" vertex="1" parent="WIyWlLk6GJQsqaUBKTNV-1">
          <mxGeometry x="470" y="450" width="60" height="40" as="geometry" />
        </mxCell>
      </root>
    </mxGraphModel>
  </diagram>
</mxfile>
